<?xml version="1.0" encoding="UTF-8" standalone="no"?>
<!-- Created with Inkscape (http://www.inkscape.org/) -->

<svg
   xmlns:dc="http://purl.org/dc/elements/1.1/"
   xmlns:cc="http://creativecommons.org/ns#"
   xmlns:rdf="http://www.w3.org/1999/02/22-rdf-syntax-ns#"
   xmlns:svg="http://www.w3.org/2000/svg"
   xmlns="http://www.w3.org/2000/svg"
   xmlns:sodipodi="http://sodipodi.sourceforge.net/DTD/sodipodi-0.dtd"
   xmlns:inkscape="http://www.inkscape.org/namespaces/inkscape"

   viewBox="-100 -50 210 297"
   version="1.1"
   id="svg5248"
   inkscape:version="0.92.3 (2405546, 2018-03-11)"
   sodipodi:docname="caps5.svg">
  <defs
     id="defs5242">
    <inkscape:path-effect
       effect="skeletal"
       id="path-effect5914"
       is_visible="true"
       pattern="m -30.830774,-5.394275 h 17.412622 v 21.935934 h -16.832201 z"
       copytype="single_stretched"
       prop_scale="0.26458333"
       scale_y_rel="false"
       spacing="0"
       normal_offset="0"
       tang_offset="0"
       prop_units="false"
       vertical_pattern="false"
       fuse_tolerance="0" />
    <inkscape:path-effect
       effect="skeletal"
       id="path-effect5904"
       is_visible="true"
       pattern="m -30.830774,-5.394275 h 17.412622 v 21.935934 h -16.832201 z"
       copytype="single_stretched"
       prop_scale="0.26458333"
       scale_y_rel="false"
       spacing="0"
       normal_offset="0"
       tang_offset="0"
       prop_units="false"
       vertical_pattern="false"
       fuse_tolerance="0" />
    <inkscape:path-effect
       effect="skeletal"
       id="path-effect5894"
       is_visible="true"
       pattern="m -30.830774,-5.394275 h 17.412622 v 21.935934 h -16.832201 z"
       copytype="single_stretched"
       prop_scale="0.26458333"
       scale_y_rel="false"
       spacing="0"
       normal_offset="0"
       tang_offset="0"
       prop_units="false"
       vertical_pattern="false"
       fuse_tolerance="0" />
    <inkscape:path-effect
       effect="skeletal"
       id="path-effect5884"
       is_visible="true"
       pattern="m -30.830774,-5.394275 h 17.412622 v 21.935934 h -16.832201 z"
       copytype="single_stretched"
       prop_scale="0.26458333"
       scale_y_rel="false"
       spacing="0"
       normal_offset="0"
       tang_offset="0"
       prop_units="false"
       vertical_pattern="false"
       fuse_tolerance="0" />
    <inkscape:path-effect
       effect="skeletal"
       id="path-effect5874"
       is_visible="true"
       pattern="m -30.830774,-5.394275 h 17.412622 v 21.935934 h -16.832201 z"
       copytype="single_stretched"
       prop_scale="0.26458333"
       scale_y_rel="false"
       spacing="0"
       normal_offset="0"
       tang_offset="0"
       prop_units="false"
       vertical_pattern="false"
       fuse_tolerance="0" />
    <inkscape:path-effect
       effect="skeletal"
       id="path-effect5864"
       is_visible="true"
       pattern="M -25.830307,-10.511652 H -8.4176844 V 11.424282 H -25.249886 Z"
       copytype="single_stretched"
       prop_scale="0.26458333"
       scale_y_rel="false"
       spacing="0"
       normal_offset="0"
       tang_offset="0"
       prop_units="false"
       vertical_pattern="false"
       fuse_tolerance="0" />
    <inkscape:path-effect
       effect="skeletal"
       id="path-effect5854"
       is_visible="true"
       pattern="m -30.830774,-5.394275 h 17.412622 v 21.935934 h -16.832201 z"
       copytype="single_stretched"
       prop_scale="0.26458333"
       scale_y_rel="false"
       spacing="0"
       normal_offset="0"
       tang_offset="0"
       prop_units="false"
       vertical_pattern="false"
       fuse_tolerance="0" />
  </defs>
  <sodipodi:namedview
     id="base"
     pagecolor="#ffffff"
     bordercolor="#666666"
     borderopacity="1.0"
     inkscape:pageopacity="0.0"
     inkscape:pageshadow="2"
     inkscape:zoom="0.12374369"
     inkscape:cx="-181.26201"
     inkscape:cy="170.4756"
     inkscape:document-units="mm"
     inkscape:current-layer="layer1"
     showgrid="false"
     units="px"
     showborder="false"
     inkscape:window-width="1920"
     inkscape:window-height="1001"
     inkscape:window-x="-9"
     inkscape:window-y="-9"
     inkscape:window-maximized="1"
     inkscape:snap-smooth-nodes="true" />
  <metadata
     id="metadata5245">
    <rdf:RDF>
      <cc:Work
         rdf:about="">
        <dc:format>image/svg+xml</dc:format>
        <dc:type
           rdf:resource="http://purl.org/dc/dcmitype/StillImage" />
        <dc:title></dc:title>
      </cc:Work>
    </rdf:RDF>
  </metadata>
  <g
     inkscape:label="Layer 1"
     inkscape:groupmode="layer"
     id="layer1">
    <path
       inkscape:connector-curvature="0"
       style="font-style:normal;font-variant:normal;font-weight:800;font-stretch:normal;font-size:medium;line-height:1.25;font-family:'Rockwell Extra Bold';-inkscape-font-specification:'Rockwell Extra Bold, Ultra-Bold';font-variant-ligatures:normal;font-variant-caps:normal;font-variant-numeric:normal;font-feature-settings:normal;text-align:start;letter-spacing:0px;word-spacing:0px;writing-mode:lr-tb;text-anchor:start;fill:#f00000;fill-opacity:1;stroke:none;stroke-width:5.10803938"
       id="path5801"
       d="m -281.26564,106.81729 30.9615,12.4616 c -2.60762,17.40338 -8.58775,26.03339 -17.94038,37.11537 -9.4661,11.16002 -138.49833,4.44563 -155.10674,4.44563 -22.67343,0 -39.45176,-8.1554 -50.33501,-24.46619 -10.93984,-16.23275 -16.40976,-36.05544 -16.40976,-59.468062 0,-23.568707 5.35659,-43.5865 16.06976,-60.053378 10.71318,-16.4668744 24.62893,-24.7003116 41.74726,-24.7003116 13.88761,0 25.19603,4.7215448 33.92526,14.1646345 V -4.5702847 h 28.39831 V 54.897774 h -29.50361 c -1.53062,-7.413998 -4.10981,-13.267155 -7.73756,-17.55947 -3.62775,-4.214269 -7.76556,-6.321404 -12.41343,-6.321404 -12.81059,0 -19.21589,15.179182 -19.21589,45.537547 0,30.436413 6.63196,45.654613 19.89588,45.654613 11.62011,0 134.66005,8.41107 137.66441,-15.39177 z"
       sodipodi:nodetypes="cccscsssccccccsssc" />
    <path
       inkscape:connector-curvature="0"
       style="font-style:normal;font-variant:normal;font-weight:800;font-stretch:normal;font-size:medium;line-height:1.25;font-family:'Rockwell Extra Bold';-inkscape-font-specification:'Rockwell Extra Bold, Ultra-Bold';font-variant-ligatures:normal;font-variant-caps:normal;font-variant-numeric:normal;font-feature-settings:normal;text-align:start;letter-spacing:0px;word-spacing:0px;writing-mode:lr-tb;text-anchor:start;fill:#f00000;fill-opacity:1;stroke:none;stroke-width:3.91708827"
       id="path5803"
       d="M -286.3756,72.763115 V 60.578507 q -5.69672,-2.478226 -12.07344,-2.478226 -5.61183,0 -8.92774,2.478226 -3.31591,2.547064 -3.31591,6.470924 0,4.061533 3.40124,6.608601 3.48568,2.615903 7.99222,2.615903 7.99222,0 12.92363,-3.51082 z m -32.0542,-31.046656 -33.50038,-2.753584 q 5.52695,-9.844064 17.85549,-13.836762 12.15876,-3.992695 35.88076,-3.992695 8.75753,0 15.64445,0.481878 6.97224,0.413036 12.41386,1.30795 11.30857,1.720992 16.75019,5.300652 5.44162,3.648497 7.5669,7.847712 2.21104,4.336895 2.21104,13.492561 v 19.275087 h 10.54282 v 20.996077 h -53.31093 v -4.543412 q -11.05302,5.782526 -29.5885,5.782526 -17.43017,0 -26.27302,-6.195565 -8.92775,-6.195562 -8.92775,-14.662834 0,-9.362185 10.96857,-15.351231 10.88325,-5.989042 28.39831,-5.989042 15.98488,0 25.42239,3.373139 v -1.996347 q 0,-6.195566 -1.1053,-8.673791 -1.19019,-2.615903 -5.27141,-4.474573 -4.25143,-1.789832 -9.86283,-1.789832 -10.28815,0 -15.81466,6.402086 z" />
    <path
       inkscape:connector-curvature="0"
       style="font-style:normal;font-variant:normal;font-weight:800;font-stretch:normal;font-size:medium;line-height:1.25;font-family:'Rockwell Extra Bold';-inkscape-font-specification:'Rockwell Extra Bold, Ultra-Bold';font-variant-ligatures:normal;font-variant-caps:normal;font-variant-numeric:normal;font-feature-settings:normal;text-align:start;letter-spacing:0px;word-spacing:0px;writing-mode:lr-tb;text-anchor:start;fill:#f00000;fill-opacity:1;stroke:none;stroke-width:3.91708827"
       id="path5805"
       d="m -170.91089,56.723489 q 0,7.228157 4.08122,10.876658 3.99589,3.717337 10.11794,3.717337 14.53914,0 14.53914,-15.007031 0,-14.662837 -13.94405,-14.662837 -6.37671,0 -10.54325,3.57966 -4.251,3.648501 -4.251,11.496213 z M -223.37162,44.057003 V 23.060927 h 52.71584 V 27.5355 q 13.60405,-5.713688 27.97342,-5.713688 18.36526,0 31.544,9.637544 13.094287,9.706386 13.094287,25.401814 0,15.833106 -12.839187,24.988771 -12.92363,9.224508 -33.58482,9.224508 -15.30446,0 -26.1877,-5.507167 v 13.905596 h 10.88324 v 20.996082 h -63.76929 V 99.472878 h 10.11837 V 44.057003 Z" />
    <path
       inkscape:connector-curvature="0"
       style="font-style:normal;font-variant:normal;font-weight:800;font-stretch:normal;font-size:medium;line-height:1.25;font-family:'Rockwell Extra Bold';-inkscape-font-specification:'Rockwell Extra Bold, Ultra-Bold';font-variant-ligatures:normal;font-variant-caps:normal;font-variant-numeric:normal;font-feature-settings:normal;text-align:start;letter-spacing:0px;word-spacing:0px;writing-mode:lr-tb;text-anchor:start;fill:#f00000;fill-opacity:1;stroke:none;stroke-width:4.35758543"
       id="path5807"
       d="m -18.620558,95.443568 h 30.598823 v -22.6755 h -28.631173 q -11.019546,8.687368 -24.104974,8.687368 -13.184163,0 -13.184163,-4.049197 0,-2.061409 2.853244,-3.165736 2.951476,-1.177949 15.643978,-3.46022 10.232182,-2.061409 22.629488,-4.785417 10.7243479,-2.282272 16.9224958,-5.742495 6.3956192,-3.460224 8.5597322,-6.773202 2.361583,-3.312978 2.361583,-8.687369 0,-11.853102 -11.2165128,-17.448355 -11.1177775,-5.521633 -28.2372412,-5.521633 -17.710362,0 -29.713733,5.00628 V 23.147006 H -84.344405 V 43.90834 h 27.942547 q 10.429148,-7.435797 24.794104,-7.435797 11.314743,0 11.314743,4.490926 0,2.135034 -3.345408,2.797628 -2.853244,0.662596 -18.89065,3.165737 -18.202023,2.871245 -28.434208,5.742495 -10.133952,2.87125 -15.250547,7.583042 -5.017861,4.711792 -5.017861,11.558615 0,12.368454 12.299073,18.258195 12.199833,5.816119 30.106659,5.816119 17.808593,0 30.205395,-4.859037 z" />
    <path
       inkscape:connector-curvature="0"
       style="font-style:normal;font-variant:normal;font-weight:800;font-stretch:normal;font-size:medium;line-height:1.25;font-family:'Rockwell Extra Bold';-inkscape-font-specification:'Rockwell Extra Bold, Ultra-Bold';font-variant-ligatures:normal;font-variant-caps:normal;font-variant-numeric:normal;font-feature-settings:normal;text-align:start;letter-spacing:0px;word-spacing:0px;writing-mode:lr-tb;text-anchor:start;fill:#f00000;fill-opacity:1;stroke:none;stroke-width:5.65141964"
       id="path5809"
       d="M 448.32383,155.60319 H 23.54181 v -47.71676 h 10.628578 l 0,-66.090216 H 23.54181 V -5.9205429 H 91.137216 V 41.796214 H 79.913977 l 0,66.090216 H 420.0953 V 75.931971 h 28.22853 z"
       sodipodi:nodetypes="ccccccccccccccc" />
    <path
       inkscape:connector-curvature="0"
       style="font-style:normal;font-variant:normal;font-weight:800;font-stretch:normal;font-size:medium;line-height:1.25;font-family:'Rockwell Extra Bold';-inkscape-font-specification:'Rockwell Extra Bold, Ultra-Bold';font-variant-ligatures:normal;font-variant-caps:normal;font-variant-numeric:normal;font-feature-settings:normal;text-align:start;letter-spacing:0px;word-spacing:0px;writing-mode:lr-tb;text-anchor:start;fill:#f00000;fill-opacity:1;stroke:none;stroke-width:3.91708827"
       id="path5811"
       d="m 150.54221,56.241611 q 0,15.970787 14.11426,15.970787 14.96447,0 14.96447,-16.108464 0,-7.365838 -3.65634,-11.427375 -3.74122,-4.061534 -10.54325,-4.061534 -6.71671,0 -10.79792,3.992695 -4.08122,3.992698 -4.08122,11.633891 z m -43.27788,-0.13767 q 0,-14.731676 15.30445,-24.851094 15.30446,-10.119422 41.32238,-10.119422 26.18771,0 42.59746,9.775221 16.4102,9.775225 16.4102,25.470653 0,15.144712 -15.64489,25.264133 -15.64444,10.119419 -41.32237,10.119419 -27.71833,0 -43.19256,-10.119419 -15.47467,-10.050583 -15.47467,-25.539491 z" />
    <path
       inkscape:connector-curvature="0"
       style="font-style:normal;font-variant:normal;font-weight:800;font-stretch:normal;font-size:medium;line-height:1.25;font-family:'Rockwell Extra Bold';-inkscape-font-specification:'Rockwell Extra Bold, Ultra-Bold';font-variant-ligatures:normal;font-variant-caps:normal;font-variant-numeric:normal;font-feature-settings:normal;text-align:start;letter-spacing:0px;word-spacing:0px;writing-mode:lr-tb;text-anchor:start;fill:#f00000;fill-opacity:1;stroke:none;stroke-width:3.91708827"
       id="path5813"
       d="m 299.25132,89.835335 h 53.31093 V 68.839258 H 342.01899 V 15.075534 h 10.71347 V -5.9205429 H 299.25132 V 60.785026 L 272.38363,39.513592 h 15.04935 V 23.060927 h -52.71583 v 18.104815 h 9.60773 l 15.47467,12.253447 -18.62036,15.420069 h -6.71714 v 20.996077 h 30.69424 l 34.09503,-29.050309 z" />
    <rect
       style="opacity:1;fill:#000000;fill-opacity:0.03921569;stroke:#000000;stroke-width:0.71763307;stroke-miterlimit:4;stroke-dasharray:none;stroke-opacity:1"
       id="rect5842"
       width="987.90399"
       height="243.8024"
       x="-517.48328"
       y="-55.822079" />
    <rect
       style="opacity:1;fill:#000000;fill-opacity:0.03921569;stroke:#000000;stroke-width:2.64583333;stroke-miterlimit:4;stroke-dasharray:none;stroke-opacity:1"
       id="rect5844"
       width="1045.5583"
       height="318.58527"
       x="-549.5061"
       y="-92.14444" />
    <path
       style="fill:#000000;stroke:none;stroke-width:0.26458332px;stroke-linecap:butt;stroke-linejoin:miter;stroke-opacity:1"
       d="m -546.75309,-91.226764 -102.63153,307.894494 -5.50604,-1.83535 99.21047,-297.631339 z"
       id="path5846"
       inkscape:connector-curvature="0"
       inkscape:path-effect="#path-effect5854"
       inkscape:original-d="M -549.50611,-92.144439 -652.13764,215.75005" />
    <path
       style="fill:#000000;stroke:#000000;stroke-width:0;stroke-linecap:butt;stroke-linejoin:miter;stroke-opacity:1;stroke-miterlimit:4;stroke-dasharray:none;fill-opacity:1"
       d="M 498.54289,227.93008 374.52982,435.33127 369.54851,432.35275 489.4278,231.86494 Z"
       id="path5866"
       inkscape:connector-curvature="0"
       inkscape:path-effect="#path-effect5874"
       inkscape:original-d="M 496.05223,226.44082 372.03917,433.842" />
    <path
       style="fill:#000000;stroke:none;stroke-width:0.26458332px;stroke-linecap:butt;stroke-linejoin:miter;stroke-opacity:1"
       d="m 278.19048,281.75906 h -405.1905 v -5.80388 h 391.68414 z"
       id="path5876"
       inkscape:connector-curvature="0"
       inkscape:path-effect="#path-effect5884"
       inkscape:original-d="M 278.19048,278.85712 H -127" />
    <path
       style="fill:#000000;stroke:none;stroke-width:0.52916667;stroke-linecap:butt;stroke-linejoin:miter;stroke-opacity:1;opacity:0.851;stroke-miterlimit:4;stroke-dasharray:1.05833333, 0.52916666999999995, 0.26458333000000001, 0.52916666999999995;stroke-dashoffset:0;fill-opacity:1"
       d="M 187.47619,330.14003 H 57.45238 v -5.80388 h 125.68968 z"
       id="path5886"
       inkscape:connector-curvature="0"
       inkscape:path-effect="#path-effect5894"
       inkscape:original-d="M 187.47619,327.23809 H 57.452381" />
    <path
       style="fill:#000000;stroke:none;stroke-width:0.52916667;stroke-linecap:butt;stroke-linejoin:miter;stroke-opacity:1;opacity:0.851;stroke-miterlimit:4;stroke-dasharray:1.05833333, 0.52916666999999995, 0.26458333000000001, 0.52916666999999995;stroke-dashoffset:0;fill-opacity:1"
       d="m -205.61905,366.66948 h 335.64286 v 5.80388 h -324.45476 z"
       id="path5896"
       inkscape:connector-curvature="0"
       inkscape:path-effect="#path-effect5904"
       inkscape:original-d="M -205.61905,369.57142 H 130.02381" />
    <path
       style="fill:#000000;stroke:none;stroke-width:0.52916667;stroke-linecap:butt;stroke-linejoin:miter;stroke-opacity:1;opacity:0.851;stroke-miterlimit:4;stroke-dasharray:1.05833333, 0.52916666999999995, 0.26458333000000001, 0.52916666999999995;stroke-dashoffset:0;fill-opacity:1"
       d="m -90.714284,409.00282 h 78.61905 v 5.80388 h -75.998414 z"
       id="path5906"
       inkscape:connector-curvature="0"
       inkscape:path-effect="#path-effect5914"
       inkscape:original-d="m -90.714284,411.90476 h 78.619046" />
  </g>
</svg>
