<?xml version="1.0" encoding="UTF-8" standalone="no"?>
<!-- Created with Inkscape (http://www.inkscape.org/) -->

<svg
   xmlns:dc="http://purl.org/dc/elements/1.1/"
   xmlns:cc="http://creativecommons.org/ns#"
   xmlns:rdf="http://www.w3.org/1999/02/22-rdf-syntax-ns#"
   xmlns:svg="http://www.w3.org/2000/svg"
   xmlns="http://www.w3.org/2000/svg"
   xmlns:sodipodi="http://sodipodi.sourceforge.net/DTD/sodipodi-0.dtd"
   xmlns:inkscape="http://www.inkscape.org/namespaces/inkscape"
  
   viewBox="0 0 49.375667 23.209724"
   version="1.1"
   id="svg5951"
   sodipodi:docname="caps6.svg"
   inkscape:version="0.92.3 (2405546, 2018-03-11)">
  <defs
     id="defs5945">
    <inkscape:path-effect
       effect="skeletal"
       id="path-effect5854"
       is_visible="true"
       pattern="m 629.63584,-396.97276 h 17.41262 v 21.93593 h -16.8322 z"
       copytype="single_stretched"
       prop_scale="0.011083395"
       scale_y_rel="false"
       spacing="0"
       normal_offset="0"
       tang_offset="0"
       prop_units="false"
       vertical_pattern="false"
       fuse_tolerance="0" />
    <inkscape:path-effect
       effect="skeletal"
       id="path-effect5874"
       is_visible="true"
       pattern="m 629.63584,-396.97276 h 17.41262 v 21.93593 h -16.8322 z"
       copytype="single_stretched"
       prop_scale="0.011083395"
       scale_y_rel="false"
       spacing="0"
       normal_offset="0"
       tang_offset="0"
       prop_units="false"
       vertical_pattern="false"
       fuse_tolerance="0" />
    <inkscape:path-effect
       effect="skeletal"
       id="path-effect5884"
       is_visible="true"
       pattern="m 629.63584,-396.97276 h 17.41262 v 21.93593 h -16.8322 z"
       copytype="single_stretched"
       prop_scale="0.011083395"
       scale_y_rel="false"
       spacing="0"
       normal_offset="0"
       tang_offset="0"
       prop_units="false"
       vertical_pattern="false"
       fuse_tolerance="0" />
    <inkscape:path-effect
       effect="skeletal"
       id="path-effect5894"
       is_visible="true"
       pattern="m 629.63584,-396.97276 h 17.41262 v 21.93593 h -16.8322 z"
       copytype="single_stretched"
       prop_scale="0.011083395"
       scale_y_rel="false"
       spacing="0"
       normal_offset="0"
       tang_offset="0"
       prop_units="false"
       vertical_pattern="false"
       fuse_tolerance="0" />
    <inkscape:path-effect
       effect="skeletal"
       id="path-effect5904"
       is_visible="true"
       pattern="m 629.63584,-396.97276 h 17.41262 v 21.93593 h -16.8322 z"
       copytype="single_stretched"
       prop_scale="0.011083395"
       scale_y_rel="false"
       spacing="0"
       normal_offset="0"
       tang_offset="0"
       prop_units="false"
       vertical_pattern="false"
       fuse_tolerance="0" />
    <inkscape:path-effect
       effect="skeletal"
       id="path-effect5914"
       is_visible="true"
       pattern="m 629.63584,-396.97276 h 17.41262 v 21.93593 h -16.8322 z"
       copytype="single_stretched"
       prop_scale="0.011083395"
       scale_y_rel="false"
       spacing="0"
       normal_offset="0"
       tang_offset="0"
       prop_units="false"
       vertical_pattern="false"
       fuse_tolerance="0" />
  </defs>
  <sodipodi:namedview
     id="base"
     pagecolor="#ffffff"
     bordercolor="#666666"
     borderopacity="1.0"
     inkscape:pageopacity="0.0"
     inkscape:pageshadow="2"
     inkscape:zoom="0.98994949"
     inkscape:cx="394.25903"
     inkscape:cy="-92.659394"
     inkscape:document-units="mm"
     inkscape:current-layer="layer1"
     showgrid="false"
     units="px"
     inkscape:window-width="1920"
     inkscape:window-height="1001"
     inkscape:window-x="-9"
     inkscape:window-y="-9"
     inkscape:window-maximized="1"
     fit-margin-top="2"
     fit-margin-left="2"
     fit-margin-right="2"
     fit-margin-bottom="2" />
  <metadata
     id="metadata5948">
    <rdf:RDF>
      <cc:Work
         rdf:about="">
        <dc:format>image/svg+xml</dc:format>
        <dc:type
           rdf:resource="http://purl.org/dc/dcmitype/StillImage" />
        <dc:title></dc:title>
      </cc:Work>
    </rdf:RDF>
  </metadata>
  <g
     inkscape:label="Layer 1"
     inkscape:groupmode="layer"
     id="layer1"
     transform="translate(-1.5189654,-193.28155)">
    <path
       inkscape:connector-curvature="0"
       style="font-style:normal;font-variant:normal;font-weight:800;font-stretch:normal;font-size:medium;line-height:1.25;font-family:'Rockwell Extra Bold';-inkscape-font-specification:'Rockwell Extra Bold, Ultra-Bold';font-variant-ligatures:normal;font-variant-caps:normal;font-variant-numeric:normal;font-feature-settings:normal;text-align:start;letter-spacing:0px;word-spacing:0px;writing-mode:lr-tb;text-anchor:start;fill:#f00000;fill-opacity:1;stroke:none;stroke-width:0.21397576"
       id="path5801"
       d="m 17.699286,202.20065 1.296976,0.52202 c -0.109233,0.72903 -0.35974,1.09054 -0.751522,1.55476 -0.396535,0.4675 -5.801695,0.18623 -6.497421,0.18623 -0.949789,0 -1.652634,-0.34163 -2.1085334,-1.02489 -0.45827,-0.67999 -0.687405,-1.51036 -0.687405,-2.49112 0,-0.98729 0.2243881,-1.82583 0.6731619,-2.51563 0.4487765,-0.6898 1.0317065,-1.0347 1.7487935,-1.0347 0.581751,0 1.055461,0.19779 1.421129,0.59336 v -0.45605 h 1.189605 v 2.49111 h -1.235906 c -0.06412,-0.31057 -0.17216,-0.55576 -0.324126,-0.73556 -0.151968,-0.17654 -0.3253,-0.26481 -0.52,-0.26481 -0.536635,0 -0.804954,0.63586 -0.804954,1.90757 0,1.27498 0.277815,1.91247 0.833438,1.91247 0.486768,0 5.64091,0.35234 5.766764,-0.64476 z"
       sodipodi:nodetypes="cccscsssccccccsssc" />
    <path
       inkscape:connector-curvature="0"
       style="font-style:normal;font-variant:normal;font-weight:800;font-stretch:normal;font-size:medium;line-height:1.25;font-family:'Rockwell Extra Bold';-inkscape-font-specification:'Rockwell Extra Bold, Ultra-Bold';font-variant-ligatures:normal;font-variant-caps:normal;font-variant-numeric:normal;font-feature-settings:normal;text-align:start;letter-spacing:0px;word-spacing:0px;writing-mode:lr-tb;text-anchor:start;fill:#f00000;fill-opacity:1;stroke:none;stroke-width:0.16408682"
       id="path5803"
       d="m 17.485229,200.77412 v -0.51041 q -0.238636,-0.10381 -0.505756,-0.10381 -0.235079,0 -0.373983,0.10381 -0.138904,0.1067 -0.138904,0.27107 0,0.17014 0.142478,0.27683 0.146016,0.10958 0.334795,0.10958 0.334792,0 0.54137,-0.14707 z m -1.342751,-1.30054 -1.403329,-0.11535 q 0.231522,-0.41237 0.747966,-0.57962 0.50933,-0.16726 1.503045,-0.16726 0.366853,0 0.655344,0.0202 0.292069,0.0173 0.520018,0.0548 0.473716,0.0721 0.701666,0.22205 0.227949,0.15283 0.316976,0.32874 0.09262,0.18167 0.09262,0.5652 v 0.80743 h 0.441639 v 0.87953 h -2.233195 v -0.19032 q -0.463011,0.24222 -1.239462,0.24222 -0.730149,0 -1.100577,-0.25953 -0.373983,-0.25953 -0.373983,-0.61422 0,-0.39219 0.459474,-0.64307 0.455898,-0.25088 1.189604,-0.25088 0.669607,0 1.064944,0.1413 v -0.0836 q 0,-0.25954 -0.0463,-0.36335 -0.04986,-0.10958 -0.22082,-0.18744 -0.178091,-0.075 -0.413154,-0.075 -0.43097,0 -0.662475,0.26818 z" />
    <path
       inkscape:connector-curvature="0"
       style="font-style:normal;font-variant:normal;font-weight:800;font-stretch:normal;font-size:medium;line-height:1.25;font-family:'Rockwell Extra Bold';-inkscape-font-specification:'Rockwell Extra Bold, Ultra-Bold';font-variant-ligatures:normal;font-variant-caps:normal;font-variant-numeric:normal;font-feature-settings:normal;text-align:start;letter-spacing:0px;word-spacing:0px;writing-mode:lr-tb;text-anchor:start;fill:#f00000;fill-opacity:1;stroke:none;stroke-width:0.16408682"
       id="path5805"
       d="m 22.322046,200.10222 q 0,0.30279 0.170962,0.45563 0.167388,0.15572 0.42384,0.15572 0.609045,0 0.609045,-0.62865 0,-0.61422 -0.584116,-0.61422 -0.26712,0 -0.441657,0.14995 -0.178074,0.15283 -0.178074,0.48157 z m -2.19758,-0.5306 v -0.87952 h 2.208266 v 0.18744 q 0.569874,-0.23935 1.171807,-0.23935 0.76932,0 1.321378,0.40372 0.54852,0.4066 0.54852,1.06408 0,0.66325 -0.537834,1.04678 -0.54137,0.38641 -1.406868,0.38641 -0.641104,0 -1.097003,-0.23069 v 0.58251 h 0.455899 v 0.87952 H 20.117336 V 201.893 h 0.423858 v -2.32138 z" />
    <path
       inkscape:connector-curvature="0"
       style="font-style:normal;font-variant:normal;font-weight:800;font-stretch:normal;font-size:medium;line-height:1.25;font-family:'Rockwell Extra Bold';-inkscape-font-specification:'Rockwell Extra Bold, Ultra-Bold';font-variant-ligatures:normal;font-variant-caps:normal;font-variant-numeric:normal;font-feature-settings:normal;text-align:start;letter-spacing:0px;word-spacing:0px;writing-mode:lr-tb;text-anchor:start;fill:#f00000;fill-opacity:1;stroke:none;stroke-width:0.18253924"
       id="path5807"
       d="m 28.701487,201.72421 h 1.281785 v -0.94988 h -1.199359 q -0.461609,0.36391 -1.009758,0.36391 -0.552285,0 -0.552285,-0.16962 0,-0.0863 0.119522,-0.13261 0.123638,-0.0493 0.655328,-0.14495 0.428625,-0.0863 0.947948,-0.20046 0.449242,-0.0956 0.708882,-0.24055 0.267915,-0.14495 0.358566,-0.28373 0.09893,-0.13878 0.09893,-0.36391 0,-0.49653 -0.46986,-0.73092 -0.465723,-0.2313 -1.182858,-0.2313 -0.741887,0 -1.244707,0.20972 v -0.15421 h -1.265304 v 0.8697 h 1.170513 q 0.436877,-0.31149 1.038625,-0.31149 0.473975,0 0.473975,0.18813 0,0.0894 -0.140139,0.11719 -0.119523,0.0278 -0.79133,0.13261 -0.762482,0.12028 -1.191109,0.24055 -0.424511,0.12028 -0.638846,0.31766 -0.210197,0.19738 -0.210197,0.48419 0,0.51811 0.515208,0.76483 0.51105,0.24364 1.261167,0.24364 0.746003,0 1.265305,-0.20354 z" />
    <path
       inkscape:connector-curvature="0"
       style="font-style:normal;font-variant:normal;font-weight:800;font-stretch:normal;font-size:medium;line-height:1.25;font-family:'Rockwell Extra Bold';-inkscape-font-specification:'Rockwell Extra Bold, Ultra-Bold';font-variant-ligatures:normal;font-variant-caps:normal;font-variant-numeric:normal;font-feature-settings:normal;text-align:start;letter-spacing:0px;word-spacing:0px;writing-mode:lr-tb;text-anchor:start;fill:#f00000;fill-opacity:1;stroke:none;stroke-width:0.23673795"
       id="path5809"
       d="M 48.261792,204.24429 H 30.467668 v -1.99885 h 0.445233 v -2.76852 h -0.445233 v -1.99885 h 2.831571 v 1.99885 h -0.470141 v 2.76852 h 14.250194 v -1.33857 h 1.1825 z"
       sodipodi:nodetypes="ccccccccccccccc" />
    <path
       inkscape:connector-curvature="0"
       style="font-style:normal;font-variant:normal;font-weight:800;font-stretch:normal;font-size:medium;line-height:1.25;font-family:'Rockwell Extra Bold';-inkscape-font-specification:'Rockwell Extra Bold, Ultra-Bold';font-variant-ligatures:normal;font-variant-caps:normal;font-variant-numeric:normal;font-feature-settings:normal;text-align:start;letter-spacing:0px;word-spacing:0px;writing-mode:lr-tb;text-anchor:start;fill:#f00000;fill-opacity:1;stroke:none;stroke-width:0.16408682"
       id="path5811"
       d="m 35.787714,200.08204 q 0,0.66901 0.591248,0.66901 0.626862,0 0.626862,-0.67478 0,-0.30855 -0.153165,-0.47869 -0.15672,-0.17014 -0.441658,-0.17014 -0.281363,0 -0.452324,0.16725 -0.170963,0.16726 -0.170963,0.48735 z m -1.812909,-0.006 q 0,-0.61711 0.641104,-1.04101 0.641104,-0.4239 1.730994,-0.4239 1.097002,0 1.784405,0.40948 0.687425,0.40949 0.687425,1.06697 0,0.63441 -0.655365,1.05831 -0.655344,0.42391 -1.730991,0.42391 -1.161124,0 -1.809338,-0.42391 -0.648234,-0.42102 -0.648234,-1.06985 z" />
    <path
       inkscape:connector-curvature="0"
       style="font-style:normal;font-variant:normal;font-weight:800;font-stretch:normal;font-size:medium;line-height:1.25;font-family:'Rockwell Extra Bold';-inkscape-font-specification:'Rockwell Extra Bold, Ultra-Bold';font-variant-ligatures:normal;font-variant-caps:normal;font-variant-numeric:normal;font-feature-settings:normal;text-align:start;letter-spacing:0px;word-spacing:0px;writing-mode:lr-tb;text-anchor:start;fill:#f00000;fill-opacity:1;stroke:none;stroke-width:0.16408682"
       id="path5813"
       d="m 42.017138,201.48928 h 2.233197 v -0.87953 h -0.441658 v -2.25216 h 0.448789 v -0.87952 h -2.240328 v 2.79429 l -1.125487,-0.89106 h 0.63042 v -0.6892 h -2.208268 v 0.75841 h 0.402468 l 0.648235,0.5133 -0.780008,0.64594 h -0.281379 v 0.87953 h 1.28578 l 1.428239,-1.21692 z" />
    <rect
       style="opacity:1;fill:#000000;fill-opacity:0.03921569;stroke:#000000;stroke-width:0.03006165;stroke-miterlimit:4;stroke-dasharray:none;stroke-opacity:1"
       id="rect5842"
       width="41.383297"
       height="10.212882"
       x="7.8041263"
       y="195.38768" />
    <rect
       style="opacity:1;fill:#000000;fill-opacity:0.03921569;stroke:#000000;stroke-width:0.11083394;stroke-miterlimit:4;stroke-dasharray:none;stroke-opacity:1"
       id="rect5844"
       width="43.798439"
       height="13.345536"
       x="6.4626923"
       y="193.86613" />
    <path
       style="fill:#000000;stroke:none;stroke-width:0.0110834px;stroke-linecap:butt;stroke-linejoin:miter;stroke-opacity:1"
       d="m 6.5780163,193.90459 -4.299236,12.8977 -0.2306482,-0.0769 4.1559283,-12.46778 z"
       id="path5846"
       inkscape:connector-curvature="0"
       inkscape:path-effect="#path-effect5854"
       inkscape:original-d="m 6.4626922,193.86615 -4.299235,12.8977" />
    <path
       style="fill:#000000;fill-opacity:1;stroke:#000000;stroke-width:0;stroke-linecap:butt;stroke-linejoin:miter;stroke-miterlimit:4;stroke-dasharray:none;stroke-opacity:1"
       d="m 50.365465,207.27407 -5.194909,8.68804 -0.208668,-0.12477 5.021746,-8.39844 z"
       id="path5866"
       inkscape:connector-curvature="0"
       inkscape:path-effect="#path-effect5874"
       inkscape:original-d="m 50.261131,207.21168 -5.194908,8.68804" />
    <path
       style="fill:#000000;stroke:none;stroke-width:0.0110834px;stroke-linecap:butt;stroke-linejoin:miter;stroke-opacity:1"
       d="M 41.134901,209.52896 H 24.161462 v -0.24312 H 40.56912 Z"
       id="path5876"
       inkscape:connector-curvature="0"
       inkscape:path-effect="#path-effect5884"
       inkscape:original-d="M 41.134901,209.4074 H 24.161473" />
    <path
       style="opacity:0.85100002;fill:#000000;fill-opacity:1;stroke:none;stroke-width:0.02216679;stroke-linecap:butt;stroke-linejoin:miter;stroke-miterlimit:4;stroke-dasharray:0.04433358, 0.02216679, 0.01108339, 0.02216679;stroke-dashoffset:0;stroke-opacity:1"
       d="m 37.334881,211.55564 h -5.446702 v -0.24312 h 5.265145 z"
       id="path5886"
       inkscape:connector-curvature="0"
       inkscape:path-effect="#path-effect5894"
       inkscape:original-d="M 37.334881,211.43408 H 31.888182" />
    <path
       style="opacity:0.85100002;fill:#000000;fill-opacity:1;stroke:none;stroke-width:0.02216679;stroke-linecap:butt;stroke-linejoin:miter;stroke-miterlimit:4;stroke-dasharray:0.04433358, 0.02216679, 0.01108339, 0.02216679;stroke-dashoffset:0;stroke-opacity:1"
       d="m 20.868121,213.08586 h 14.060081 v 0.24312 H 21.33679 Z"
       id="path5896"
       inkscape:connector-curvature="0"
       inkscape:path-effect="#path-effect5904"
       inkscape:original-d="M 20.868121,213.20742 H 34.928199" />
    <path
       style="opacity:0.85100002;fill:#000000;fill-opacity:1;stroke:none;stroke-width:0.02216679;stroke-linecap:butt;stroke-linejoin:miter;stroke-miterlimit:4;stroke-dasharray:0.04433358, 0.02216679, 0.01108339, 0.02216679;stroke-dashoffset:0;stroke-opacity:1"
       d="m 25.681481,214.85921 h 3.293353 v 0.24312 h -3.183575 z"
       id="path5906"
       inkscape:connector-curvature="0"
       inkscape:path-effect="#path-effect5914"
       inkscape:original-d="m 25.681481,214.98077 h 3.293352" />
  </g>
</svg>
